<svg xmlns="http://www.w3.org/2000/svg" xmlns:xlink="http://www.w3.org/1999/xlink" width="20" height="20" viewBox="0 0 20 20">
  <defs>
    <style>
      .cls-1 {
        fill: #bdc3c7;
        fill-rule: evenodd;
        opacity: 0.7;
        filter: url(#filter);
      }
    </style>
    <filter id="filter" x="0" y="0" width="20" height="20" filterUnits="userSpaceOnUse">
      <feFlood result="flood" flood-color="#fff"/>
      <feComposite result="composite" operator="in" in2="SourceGraphic"/>
      <feBlend result="blend" in2="SourceGraphic"/>
    </filter>
  </defs>
  <path id="basket" class="cls-1" d="M19.946,7.765L19.97,7.771l-2.5,11.25-0.024-.006a1.232,1.232,0,0,1-1.2.985H3.75a1.232,1.232,0,0,1-1.2-.985l-0.024.006L0.03,7.771l0.024-.006A1.181,1.181,0,0,1,0,7.5,1.25,1.25,0,0,1,1.25,6.25h2.5a6.25,6.25,0,1,1,12.5,0h2.5A1.25,1.25,0,0,1,20,7.5,1.189,1.189,0,0,1,19.946,7.765ZM10,2.5A3.75,3.75,0,0,0,6.25,6.25h7.5A3.75,3.75,0,0,0,10,2.5Zm5,8.75A1.25,1.25,0,0,1,13.75,10V8.75H6.25V10a1.25,1.25,0,1,1-2.5,0V8.75H2.808L4.753,17.5H15.247l1.945-8.75H16.25V10A1.25,1.25,0,0,1,15,11.25Z"/>
</svg>
