<svg xmlns="http://www.w3.org/2000/svg" xmlns:xlink="http://www.w3.org/1999/xlink" width="24" height="24" viewBox="0 0 24 24">
  <defs>
    <style>
      .cls-1 {
        fill: #bdc3c7;
        fill-rule: evenodd;
        filter: url(#filter);
      }
    </style>
    <filter id="filter" x="0.813" y="0.813" width="22.375" height="22.375" filterUnits="userSpaceOnUse">
      <feFlood result="flood" flood-color="#fff"/>
      <feComposite result="composite" operator="in" in2="SourceGraphic"/>
      <feBlend result="blend" in2="SourceGraphic"/>
    </filter>
  </defs>
  <path id="tooltip" class="cls-1" d="M20.4,19H16.78l-3.79,3.79h0a1.4,1.4,0,0,1-1.98,0h0L7.22,19H3.6A2.8,2.8,0,0,1,.8,16.2V3.6A2.8,2.8,0,0,1,3.6.8H20.4a2.8,2.8,0,0,1,2.8,2.8V16.2A2.8,2.8,0,0,1,20.4,19Zm0-14A1.4,1.4,0,0,0,19,3.6H5A1.4,1.4,0,0,0,3.6,5v9.8A1.4,1.4,0,0,0,5,16.2H7.8a1.4,1.4,0,0,1,.99.41h0L12,19.819l3.21-3.21h0a1.4,1.4,0,0,1,.99-0.41H19a1.4,1.4,0,0,0,1.4-1.4V5Zm-4.2,8.4H7.8a1.4,1.4,0,0,1,0-2.8h8.4A1.4,1.4,0,0,1,16.2,13.4Zm0-4.2H7.8a1.4,1.4,0,1,1,0-2.8h8.4A1.4,1.4,0,1,1,16.2,9.2Z"/>
</svg>
