<svg xmlns="http://www.w3.org/2000/svg" xmlns:xlink="http://www.w3.org/1999/xlink" width="19" height="21" viewBox="0 0 19 21">
  <defs>
    <style>
      .cls-1 {
        fill: #bdc3c7;
        fill-rule: evenodd;
        opacity: 0.7;
        filter: url(#filter);
      }
    </style>
    <filter id="filter" x="0" y="0" width="19" height="21" filterUnits="userSpaceOnUse">
      <feFlood result="flood" flood-color="#fff"/>
      <feComposite result="composite" operator="in" in2="SourceGraphic"/>
      <feBlend result="blend" in2="SourceGraphic"/>
    </filter>
  </defs>
  <path id="card" class="cls-1" d="M18.993,11.308a4.8,4.8,0,0,1-4.747,4.849A4.656,4.656,0,0,1,10.472,14.2l-0.023.018L9.5,12.924,8.55,14.217l-0.013-.01a4.693,4.693,0,0,1-3.784,1.949A4.8,4.8,0,0,1,.007,11.308a4.877,4.877,0,0,1,.962-2.9L0.956,8.4S7.918-.008,9.5-0.008,18.043,8.4,18.043,8.4l-0.013.01A4.877,4.877,0,0,1,18.993,11.308ZM7.918,17.773V16.157a1.583,1.583,0,1,1,3.164,0v1.617a1.617,1.617,0,0,1,0,3.233H7.918A1.617,1.617,0,0,1,7.918,17.773Z"/>
</svg>
